{
  "source": "C:\\Users\\Peter\\Desktop\\stuff\\MIUN\\quantitative_research\\video_compression\\videos\\BVI-HD\\BVI-HD_CDVL_videos\\ORIG\\PlasmaAveragePan_1920x1080_60fps.mp4",
  "output": "C:\\Users\\Peter\\Desktop\\stuff\\MIUN\\quantitative_research\\video_compression\\compressed_videos\\BVI-HD\\av1\\8\\PlasmaAveragePan_1920x1080_60fps_av1.mkv",
  "codec": "av1",
  "ok": "Input #0, mov,mp4,m4a,3gp,3g2,mj2, from 'C:\\Users\\Peter\\Desktop\\stuff\\MIUN\\quantitative_research\\video_compression\\videos\\BVI-HD\\BVI-HD_CDVL_videos\\ORIG\\PlasmaAveragePan_1920x1080_60fps.mp4':\n  Metadata:\n    major_brand     : isom\n    minor_version   : 512\n    compatible_brands: isomiso2avc1mp41\n    encoder         : Lavf54.28.101\n  Duration: 00:00:05.00, start: 0.000000, bitrate: 73730 kb/s\n  Stream #0:0[0x1](und): Video: h264 (High 4:4:4 Predictive) (avc1 / 0x31637661), yuv420p(progressive), 1920x1080, 73727 kb/s, 60 fps, 60 tbr, 60 tbn (default)\n    Metadata:\n      handler_name    : VideoHandler\n      vendor_id       : [0][0][0][0]\n[out#0/matroska @ 000001def4247900] Codec AVOption b:a (set bitrate (in bits/s)) has not been used for any stream. The most likely reason is either wrong type (e.g. a video option with no video streams) or that it is a private option of some decoder which was not actually used for any stream.\nStream mapping:\n  Stream #0:0 -> #0:0 (h264 (native) -> av1 (libsvtav1))\nPress [q] to stop, [?] for help\nSvt[info]: -------------------------------------------\nSvt[info]: SVT [version]:\tSVT-AV1 Encoder Lib v3.1.0-19-g6ecfe8ec\nSvt[info]: SVT [build]  :\tGCC 15.2.0\t 64 bit\nSvt[info]: LIB Build date: Aug 17 2025 11:37:13\nSvt[info]: -------------------------------------------\nSvt[info]: Level of Parallelism: 5\nSvt[info]: Number of PPCS 93\nSvt[info]: [asm level on system : up to avx2]\nSvt[info]: [asm level selected : up to avx2]\nSvt[info]: -------------------------------------------\nSvt[info]: SVT [config]: main profile\ttier (auto)\tlevel (auto)\nSvt[info]: SVT [config]: width / height / fps numerator / fps denominator \t\t: 1920 / 1080 / 60 / 1\nSvt[info]: SVT [config]: bit-depth / color format \t\t\t\t\t: 8 / YUV420\nSvt[info]: SVT [config]: preset / tune / pred struct \t\t\t\t\t: 4 / PSNR / random access\nSvt[info]: SVT [config]: gop size / mini-gop size / key-frame type \t\t\t: 321 / 16 / key frame\nSvt[info]: SVT [config]: BRC mode / target bitrate (kbps)\t\t\t\t: VBR / 8000 \nSvt[info]: SVT [config]: AQ mode / Variance Boost \t\t\t\t\t: 2 / 0\nSvt[info]: SVT [config]: sharpness / luminance-based QP bias \t\t\t\t: 0 / 0\nSvt[info]: SVT [config]: QP scale compress strength \t\t\t\t\t: 0\nSvt[info]: -------------------------------------------\nOutput #0, matroska, to 'C:\\Users\\Peter\\Desktop\\stuff\\MIUN\\quantitative_research\\video_compression\\compressed_videos\\BVI-HD\\av1\\8\\PlasmaAveragePan_1920x1080_60fps_av1.mkv':\n  Metadata:\n    major_brand     : isom\n    minor_version   : 512\n    compatible_brands: isomiso2avc1mp41\n    encoder         : Lavf62.3.100\n  Stream #0:0(und): Video: av1 (AV01 / 0x31305641), yuv420p(tv, progressive), 1920x1080, q=2-31, 8000 kb/s, 60 fps, 1k tbn (default)\n    Metadata:\n      encoder         : Lavc62.11.100 libsvtav1\n      handler_name    : VideoHandler\n      vendor_id       : [0][0][0][0]\n    Side data:\n      cpb: bitrate max/min/avg: 0/0/8000000 buffer size: 8000000 vbv_delay: N/A\nframe=    0 fps=0.0 q=0.0 size=       0KiB time=N/A bitrate=N/A speed=N/A elapsed=0:00:00.51    \nframe=    0 fps=0.0 q=0.0 size=       0KiB time=N/A bitrate=N/A speed=N/A elapsed=0:00:01.05    \nframe=    0 fps=0.0 q=0.0 size=       0KiB time=N/A bitrate=N/A speed=N/A elapsed=0:00:01.57    \nframe=    0 fps=0.0 q=0.0 size=       0KiB time=N/A bitrate=N/A speed=N/A elapsed=0:00:02.09    \nframe=    1 fps=0.4 q=7.0 size=       1KiB time=00:00:00.00 bitrate=N/A speed=   0x elapsed=0:00:02.60    \nframe=    1 fps=0.3 q=7.0 size=       1KiB time=00:00:00.00 bitrate=N/A speed=   0x elapsed=0:00:03.12    \nframe=    1 fps=0.3 q=7.0 size=       1KiB time=00:00:00.00 bitrate=N/A speed=   0x elapsed=0:00:03.65    \nframe=    3 fps=0.7 q=15.0 size=       1KiB time=00:00:00.03 bitrate= 170.9kbits/s speed=0.008x elapsed=0:00:04.16    \nframe=    5 fps=1.1 q=14.0 size=       1KiB time=00:00:00.06 bitrate=  85.4kbits/s speed=0.0142x elapsed=0:00:04.69    \nframe=    7 fps=1.3 q=14.0 size=       1KiB time=00:00:00.10 bitrate=  57.0kbits/s speed=0.0191x elapsed=0:00:05.22    \nframe=   10 fps=1.7 q=17.0 size=       1KiB time=00:00:00.15 bitrate=  38.0kbits/s speed=0.0262x elapsed=0:00:05.73    \nframe=   15 fps=2.4 q=12.0 size=       1KiB time=00:00:00.23 bitrate=  24.4kbits/s speed=0.0373x elapsed=0:00:06.25    \nframe=   18 fps=2.7 q=16.0 size=       1KiB time=00:00:00.28 bitrate=  20.1kbits/s speed=0.0418x elapsed=0:00:06.78    \nframe=   21 fps=2.9 q=11.0 size=       1KiB time=00:00:00.33 bitrate=  17.1kbits/s speed=0.0456x elapsed=0:00:07.31    \nframe=   23 fps=2.9 q=12.0 size=       1KiB time=00:00:00.36 bitrate=  15.5kbits/s speed=0.0467x elapsed=0:00:07.84    \nframe=   27 fps=3.2 q=12.0 size=       1KiB time=00:00:00.43 bitrate=  13.1kbits/s speed=0.0516x elapsed=0:00:08.39    \nframe=   31 fps=3.5 q=12.0 size=       1KiB time=00:00:00.50 bitrate=  11.4kbits/s speed=0.0561x elapsed=0:00:08.91    \nframe=   34 fps=3.6 q=16.0 size=       1KiB time=00:00:00.55 bitrate=  10.4kbits/s speed=0.0583x elapsed=0:00:09.44    \nframe=   37 fps=3.7 q=11.0 size=       1KiB time=00:00:00.60 bitrate=   9.5kbits/s speed=0.0602x elapsed=0:00:09.95    \nframe=   39 fps=3.7 q=12.0 size=       1KiB time=00:00:00.63 bitrate=   9.0kbits/s speed=0.0604x elapsed=0:00:10.48    \nframe=   42 fps=3.8 q=16.0 size=       1KiB time=00:00:00.68 bitrate=   8.3kbits/s speed=0.0619x elapsed=0:00:11.03    \nframe=   46 fps=4.0 q=16.0 size=       1KiB time=00:00:00.75 bitrate=   7.6kbits/s speed=0.0649x elapsed=0:00:11.55    \nframe=   50 fps=4.1 q=16.0 size=       1KiB time=00:00:00.81 bitrate=   7.0kbits/s speed=0.0677x elapsed=0:00:12.06    \nframe=   52 fps=4.1 q=16.0 size=       1KiB time=00:00:00.85 bitrate=   6.7kbits/s speed=0.0676x elapsed=0:00:12.57    \nframe=   55 fps=4.2 q=14.0 size=       1KiB time=00:00:00.90 bitrate=   6.3kbits/s speed=0.0685x elapsed=0:00:13.13    \nframe=   58 fps=4.2 q=16.0 size=       1KiB time=00:00:00.95 bitrate=   6.0kbits/s speed=0.0693x elapsed=0:00:13.71    \nframe=   63 fps=4.4 q=15.0 size=       1KiB time=00:00:01.03 bitrate=   5.5kbits/s speed=0.0724x elapsed=0:00:14.26    \nframe=   67 fps=4.5 q=15.0 size=       1KiB time=00:00:01.10 bitrate=   5.2kbits/s speed=0.0743x elapsed=0:00:14.81    \nframe=   69 fps=4.5 q=13.0 size=       1KiB time=00:00:01.13 bitrate=   5.0kbits/s speed=0.0739x elapsed=0:00:15.33    \nframe=   71 fps=4.5 q=15.0 size=       1KiB time=00:00:01.16 bitrate=   4.9kbits/s speed=0.0736x elapsed=0:00:15.84    \nframe=   75 fps=4.6 q=15.0 size=       1KiB time=00:00:01.23 bitrate=   4.6kbits/s speed=0.0752x elapsed=0:00:16.38    \nframe=   79 fps=4.7 q=16.0 size=       1KiB time=00:00:01.30 bitrate=   4.4kbits/s speed=0.0769x elapsed=0:00:16.90    \nframe=   83 fps=4.8 q=16.0 size=       1KiB time=00:00:01.36 bitrate=   4.2kbits/s speed=0.0784x elapsed=0:00:17.42    \nframe=   86 fps=4.8 q=18.0 size=       1KiB time=00:00:01.41 bitrate=   4.0kbits/s speed=0.0788x elapsed=0:00:17.97    \nframe=   87 fps=4.7 q=16.0 size=       1KiB time=00:00:01.43 bitrate=   4.0kbits/s speed=0.0775x elapsed=0:00:18.49    \nframe=   90 fps=4.7 q=18.0 size=       1KiB time=00:00:01.48 bitrate=   3.8kbits/s speed=0.0779x elapsed=0:00:19.03    \nframe=   94 fps=4.8 q=18.0 size=       1KiB time=00:00:01.55 bitrate=   3.7kbits/s speed=0.0793x elapsed=0:00:19.54    \nframe=   98 fps=4.9 q=18.0 size=       1KiB time=00:00:01.61 bitrate=   3.5kbits/s speed=0.0806x elapsed=0:00:20.06    \nframe=  101 fps=4.9 q=14.0 size=       1KiB time=00:00:01.66 bitrate=   3.4kbits/s speed=0.081x elapsed=0:00:20.57    \nframe=  105 fps=5.0 q=14.0 size=       1KiB time=00:00:01.73 bitrate=   3.3kbits/s speed=0.0822x elapsed=0:00:21.09    \nframe=  109 fps=5.0 q=14.0 size=       1KiB time=00:00:01.80 bitrate=   3.2kbits/s speed=0.0832x elapsed=0:00:21.62    \nframe=  114 fps=5.1 q=19.0 size=       1KiB time=00:00:01.88 bitrate=   3.0kbits/s speed=0.0851x elapsed=0:00:22.13    \nframe=  117 fps=5.2 q=14.0 size=       1KiB time=00:00:01.93 bitrate=   2.9kbits/s speed=0.0853x elapsed=0:00:22.66    \nframe=  121 fps=5.2 q=14.0 size=       1KiB time=00:00:02.00 bitrate=   2.8kbits/s speed=0.0863x elapsed=0:00:23.18    \nframe=  125 fps=5.3 q=14.0 size=       1KiB time=00:00:02.06 bitrate=   2.8kbits/s speed=0.0871x elapsed=0:00:23.73    \nframe=  130 fps=5.4 q=19.0 size=       1KiB time=00:00:02.15 bitrate=   2.6kbits/s speed=0.0886x elapsed=0:00:24.26    \nframe=  134 fps=5.4 q=19.0 size=       1KiB time=00:00:02.21 bitrate=   2.6kbits/s speed=0.0895x elapsed=0:00:24.78    \nframe=  137 fps=5.4 q=14.0 size=       1KiB time=00:00:02.26 bitrate=   2.5kbits/s speed=0.0896x elapsed=0:00:25.29    \nframe=  142 fps=5.5 q=18.0 size=       1KiB time=00:00:02.35 bitrate=   2.4kbits/s speed=0.091x elapsed=0:00:25.82    \nframe=  147 fps=5.6 q=16.0 size=       1KiB time=00:00:02.43 bitrate=   2.3kbits/s speed=0.0924x elapsed=0:00:26.32    \nframe=  150 fps=5.6 q=18.0 size=       1KiB time=00:00:02.48 bitrate=   2.3kbits/s speed=0.0925x elapsed=0:00:26.84    \nframe=  153 fps=5.6 q=15.0 size=       1KiB time=00:00:02.53 bitrate=   2.2kbits/s speed=0.0926x elapsed=0:00:27.36    \nframe=  157 fps=5.6 q=14.0 size=       1KiB time=00:00:02.60 bitrate=   2.2kbits/s speed=0.0932x elapsed=0:00:27.89    \nframe=  162 fps=5.7 q=19.0 size=       1KiB time=00:00:02.68 bitrate=   2.1kbits/s speed=0.0944x elapsed=0:00:28.42    \nframe=  165 fps=5.7 q=14.0 size=       1KiB time=00:00:02.73 bitrate=   2.1kbits/s speed=0.0945x elapsed=0:00:28.93    \nframe=  169 fps=5.7 q=14.0 size=       1KiB time=00:00:02.80 bitrate=   2.0kbits/s speed=0.0951x elapsed=0:00:29.45    \nframe=  173 fps=5.8 q=14.0 size=       1KiB time=00:00:02.86 bitrate=   2.0kbits/s speed=0.0956x elapsed=0:00:29.97    \nframe=  178 fps=5.8 q=19.0 size=       1KiB time=00:00:02.95 bitrate=   1.9kbits/s speed=0.0968x elapsed=0:00:30.47    \nframe=  181 fps=5.8 q=15.0 size=       1KiB time=00:00:03.00 bitrate=   1.9kbits/s speed=0.0968x elapsed=0:00:31.00    \nframe=  184 fps=5.8 q=19.0 size=       1KiB time=00:00:03.05 bitrate=   1.9kbits/s speed=0.0968x elapsed=0:00:31.52    \nframe=  189 fps=5.9 q=15.0 size=       1KiB time=00:00:03.13 bitrate=   1.8kbits/s speed=0.0978x elapsed=0:00:32.02    \nframe=  194 fps=6.0 q=19.0 size=       1KiB time=00:00:03.21 bitrate=   1.8kbits/s speed=0.0988x elapsed=0:00:32.55    \nframe=  197 fps=6.0 q=15.0 size=       1KiB time=00:00:03.26 bitrate=   1.7kbits/s speed=0.0988x elapsed=0:00:33.06    \nframe=  199 fps=5.9 q=17.0 size=       1KiB time=00:00:03.30 bitrate=   1.7kbits/s speed=0.0982x elapsed=0:00:33.59    \nframe=  205 fps=6.0 q=15.0 size=       1KiB time=00:00:03.40 bitrate=   1.7kbits/s speed=0.0997x elapsed=0:00:34.11    \nframe=  207 fps=6.0 q=17.0 size=       1KiB time=00:00:03.43 bitrate=   1.7kbits/s speed=0.0991x elapsed=0:00:34.64    \nframe=  213 fps=6.1 q=15.0 size=       1KiB time=00:00:03.53 bitrate=   1.6kbits/s speed= 0.1x elapsed=0:00:35.16    \nframe=  215 fps=6.0 q=17.0 size=       1KiB time=00:00:03.56 bitrate=   1.6kbits/s speed= 0.1x elapsed=0:00:35.67    \nframe=  217 fps=6.0 q=15.0 size=       1KiB time=00:00:03.60 bitrate=   1.6kbits/s speed=0.0995x elapsed=0:00:36.18    \nframe=  221 fps=6.0 q=15.0 size=       1KiB time=00:00:03.66 bitrate=   1.6kbits/s speed=0.0999x elapsed=0:00:36.70    \nframe=  225 fps=6.0 q=10.0 size=       1KiB time=00:00:03.73 bitrate=   1.5kbits/s speed= 0.1x elapsed=0:00:37.26    \nframe=  229 fps=6.1 q=15.0 size=       1KiB time=00:00:03.80 bitrate=   1.5kbits/s speed=0.101x elapsed=0:00:37.77    \nframe=  233 fps=6.1 q=15.0 size=       1KiB time=00:00:03.86 bitrate=   1.5kbits/s speed=0.101x elapsed=0:00:38.30    \nframe=  233 fps=6.0 q=15.0 size=       1KiB time=00:00:03.86 bitrate=   1.5kbits/s speed=0.0994x elapsed=0:00:38.88    \nframe=  237 fps=6.0 q=15.0 size=       1KiB time=00:00:03.93 bitrate=   1.4kbits/s speed=0.0998x elapsed=0:00:39.42    \nframe=  239 fps=6.0 q=17.0 size=       1KiB time=00:00:03.96 bitrate=   1.4kbits/s speed=0.0993x elapsed=0:00:39.95    \nframe=  243 fps=6.0 q=17.0 size=       1KiB time=00:00:04.03 bitrate=   1.4kbits/s speed=0.0996x elapsed=0:00:40.49    \nframe=  247 fps=6.0 q=17.0 size=       1KiB time=00:00:04.10 bitrate=   1.4kbits/s speed=0.0999x elapsed=0:00:41.03    \nframe=  249 fps=6.0 q=15.0 size=       1KiB time=00:00:04.13 bitrate=   1.4kbits/s speed=0.0995x elapsed=0:00:41.55    \nframe=  251 fps=6.0 q=17.0 size=       1KiB time=00:00:04.16 bitrate=   1.4kbits/s speed=0.0991x elapsed=0:00:42.06    \nframe=  253 fps=5.9 q=15.0 size=       1KiB time=00:00:04.20 bitrate=   1.4kbits/s speed=0.0986x elapsed=0:00:42.57    \nframe=  257 fps=6.0 q=10.0 size=       1KiB time=00:00:04.26 bitrate=   1.3kbits/s speed=0.099x elapsed=0:00:43.09    \nframe=  261 fps=6.0 q=16.0 size=       1KiB time=00:00:04.33 bitrate=   1.3kbits/s speed=0.0994x elapsed=0:00:43.61    \nframe=  263 fps=6.0 q=16.0 size=       1KiB time=00:00:04.36 bitrate=   1.3kbits/s speed=0.0989x elapsed=0:00:44.13    \nframe=  265 fps=5.9 q=15.0 size=       1KiB time=00:00:04.40 bitrate=   1.3kbits/s speed=0.0985x elapsed=0:00:44.66    \nframe=  267 fps=5.9 q=18.0 size=       1KiB time=00:00:04.43 bitrate=   1.3kbits/s speed=0.0981x elapsed=0:00:45.21    \nframe=  271 fps=5.9 q=19.0 size=       1KiB time=00:00:04.50 bitrate=   1.3kbits/s speed=0.0983x elapsed=0:00:45.77    \nframe=  275 fps=5.9 q=19.0 size=       1KiB time=00:00:04.56 bitrate=   1.2kbits/s speed=0.0986x elapsed=0:00:46.31    \nframe=  277 fps=5.9 q=18.0 size=       1KiB time=00:00:04.60 bitrate=   1.2kbits/s speed=0.0982x elapsed=0:00:46.83    \nframe=  281 fps=5.9 q=16.0 size=       1KiB time=00:00:04.66 bitrate=   1.2kbits/s speed=0.0986x elapsed=0:00:47.33    \nframe=  283 fps=5.9 q=19.0 size=       1KiB time=00:00:04.70 bitrate=   1.2kbits/s speed=0.0982x elapsed=0:00:47.86    \nframe=  285 fps=5.9 q=19.0 size=       1KiB time=00:00:04.73 bitrate=   1.2kbits/s speed=0.0979x elapsed=0:00:48.37    \nframe=  295 fps=6.0 q=19.0 size=       1KiB time=00:00:04.90 bitrate=   1.2kbits/s speed= 0.1x elapsed=0:00:48.90    \n[out#0/matroska @ 000001def4247900] video:5171KiB audio:0KiB subtitle:0KiB other streams:0KiB global headers:0KiB muxing overhead: 0.041676%\nframe=  300 fps=6.1 q=19.0 Lsize=    5174KiB time=00:00:04.98 bitrate=8504.8kbits/s speed=0.101x elapsed=0:00:49.16    \n",
  "seconds": 49.69492793083191,
  "probe_out": {}
}